<svg xmlns="http://www.w3.org/2000/svg" version="1.1" xmlns:xlink="http://www.w3.org/1999/xlink" xmlns:svgjs="http://svgjs.com/svgjs" width="1920" height="1080" preserveAspectRatio="none" viewBox="0 0 1920 1080"><g mask="url(&quot;#SvgjsMask1098&quot;)" fill="none"><rect width="1920" height="1080" x="0" y="0" fill="#0e2a47"></rect><use xlink:href="#SvgjsG1105" transform="translate(0, 0)" fill="rgba(24, 74, 126, 1)"></use><use xlink:href="#SvgjsG1105" transform="translate(0, 480)" fill="rgba(24, 74, 126, 1)"></use><use xlink:href="#SvgjsG1105" transform="translate(0, 960)" fill="rgba(24, 74, 126, 1)"></use><use xlink:href="#SvgjsG1105" transform="translate(480, 0)" fill="rgba(24, 74, 126, 1)"></use><use xlink:href="#SvgjsG1105" transform="translate(480, 480)" fill="rgba(24, 74, 126, 1)"></use><use xlink:href="#SvgjsG1105" transform="translate(480, 960)" fill="rgba(24, 74, 126, 1)"></use><use xlink:href="#SvgjsG1105" transform="translate(960, 0)" fill="rgba(24, 74, 126, 1)"></use><use xlink:href="#SvgjsG1105" transform="translate(960, 480)" fill="rgba(24, 74, 126, 1)"></use><use xlink:href="#SvgjsG1105" transform="translate(960, 960)" fill="rgba(24, 74, 126, 1)"></use><use xlink:href="#SvgjsG1105" transform="translate(1440, 0)" fill="rgba(24, 74, 126, 1)"></use><use xlink:href="#SvgjsG1105" transform="translate(1440, 480)" fill="rgba(24, 74, 126, 1)"></use><use xlink:href="#SvgjsG1105" transform="translate(1440, 960)" fill="rgba(24, 74, 126, 1)"></use></g><defs><mask id="SvgjsMask1098"><rect width="1920" height="1080" fill="#ffffff"></rect></mask><g id="SvgjsG1102"><path d="M5.534 5.272L8.008 0l2.474 5.272 5.534 0.845-4.004 4.103 0.945 5.795L8.008 13.279 3.06 16.015l0.945-5.795L0.001 6.117z"></path></g><g id="SvgjsG1101"><path d="M7.741 5.269c-0.003 0.523-0.481 1.084-1.101 1.084v8.856c0 1.261-1.714 1.261-1.716 0V6.354c-0.602 0-1.127-0.465-1.126-1.159V0.315c-0.001-0.423 0.612-0.44 0.616 0.017v3.606h0.51V0.299c0-0.389 0.59-0.414 0.591 0.016v3.623h0.526V0.307C6.044-0.103 6.618-0.12 6.616 0.323v3.615h0.526V0.307c-0.002-0.406 0.597-0.423 0.599 0.016v4.946zM12.309 1.449v13.76c0.002 1.229-1.715 1.211-1.717 0V9.746h-0.912V1.449c-0.001-1.932 2.631-1.932 2.629 0z"></path></g><g id="SvgjsG1099"><path d="M1.12 8.836c1.001-1.179 2.827-2.005 4.388-1.743 0.174-2.151-0.071-4.156 1-6.133C3.189 1.173 1.648 6.247 1.12 8.836M12.892 5.07c0.697-0.83 2.347-1.253 3.213-0.476C13.849 1.44 11.058-0.583 7.086 0.764c3.102 0.942 5.276 3.84 5.805 4.306"></path><path d="M12.267 5.198C11.182 3.684 7.769 1.266 7.019 1.417c-0.8 0.16-1.022 4.702-0.95 5.676 0.475-0.892 1.202-1.564 2.045-1.984l3.461 9.423 0.475-0.12-3.494-9.493c1.156-0.427 2.484-0.391 3.712 0.279"></path></g><g id="SvgjsG1100"><path d="M8.312 8.242l0 0.521c0.492-0.069 0.443-0.509 0-0.52v-0.001z m-0.51-0.627V7.155c-0.365 0.064-0.358 0.454 0 0.46z"></path><path d="M8.055 5.946c-1.128 0-2.044 0.915-2.044 2.043 0 1.129 0.915 2.044 2.045 2.044 1.129 0 2.043-0.915 2.043-2.044 0-1.128-0.915-2.043-2.043-2.043l-0.001 0z m0.251 3.336v0.364h-0.507v-0.37c-0.29-0.043-0.822-0.323-0.855-0.924h0.534c0.034 0.154 0.078 0.34 0.321 0.409l-0.001-0.605c-0.334-0.048-0.814-0.194-0.814-0.73 0-0.602 0.666-0.789 0.813-0.789v-0.364h0.502v0.364c0.338 0.02 0.83 0.302 0.829 0.84h-0.528c-0.014-0.16-0.137-0.317-0.296-0.327v0.554c0.403 0.041 0.877 0.195 0.877 0.738 0 0.473-0.475 0.818-0.877 0.84h0.002z"></path><path d="M0 11.93h16V4H0v7.93z m1.508-1.508V5.508h12.984V10.422H1.508z"></path></g><g id="SvgjsG1104"><path d="M0.019 0.254h2.679v1.439c0.004 0.331 0.242 0.446 0.564 0.31L7.624 0.02c0.127-0.055 0.287 0.013 0.348 0.122l0.347 0.752c0.048 0.119 0.007 0.263-0.122 0.329L2.106 3.968C1.059 4.522 0.023 3.8 0.019 2.811V0.254z m14.515 3.338l1.419-1.138-0.808-1.09L13.875 2.304l0.583-1.899L13.199 0.02 12.541 2.022 11.883 0.02l-1.27 0.385 0.583 1.899-1.307-0.959-0.808 1.091 1.457 1.156h-1.467v11.676H16V3.591h-1.466zM11.835 13.905h-1.467V8.189h1.467v5.716z m0-7.08h-1.467V4.973h1.467V6.826z m2.868 7.079h-1.467V8.189h1.467v5.716z m0-7.079h-1.467V4.974h1.467V6.826zM7.483 12.908V4.908H5.208l0.01-1.335c-0.009 0.005-4.278 1.909-4.278 1.909C0.249 5.812 0 6.293 0 6.948V13.397c0 1.028 0.826 1.87 1.777 1.871h5.725V14.083c-0.701-0.086-0.701-1.087-0.019-1.175z m-5.735 1.053c-0.627-0.004-0.625-0.884 0-0.884h3.996c-0.278 0.206-0.26 0.692 0.037 0.884H1.748z m4.456-2.134H2.707l2.501-1.128V6.205h0.997v5.622z"></path></g><g id="SvgjsG1103"><path d="M3.755 2.315h2.494v11.128h-2.494zM13.507 0.537H16v11.261h-2.493z"></path><path d="M4.451 5.556l-0.696-3.24L16 0v3.167z"></path><path d="M0 13.443a3.124 2.606 0 1 0 6.249 0 3.124 2.606 0 1 0-6.249 0"></path><path d="M9.751 11.798a3.124 2.606 0 1 0 6.249 0 3.124 2.606 0 1 0-6.249 0"></path></g><g id="SvgjsG1105"><use xlink:href="#SvgjsG1099" transform="translate(0, 0) scale(2)" fill="rgba(24, 74, 126, 1)"></use><use xlink:href="#SvgjsG1100" transform="translate(0, 48) scale(2)" fill="rgba(24, 74, 126, 1)"></use><use xlink:href="#SvgjsG1099" transform="translate(0, 96) scale(2)" fill="rgba(24, 74, 126, 1)"></use><use xlink:href="#SvgjsG1101" transform="translate(0, 144) scale(2)" fill="rgba(24, 74, 126, 1)"></use><use xlink:href="#SvgjsG1099" transform="translate(0, 192) scale(2)" fill="rgba(24, 74, 126, 1)"></use><use xlink:href="#SvgjsG1099" transform="translate(0, 240) scale(2)" fill="rgba(24, 74, 126, 1)"></use><use xlink:href="#SvgjsG1101" transform="translate(0, 288) scale(2)" fill="rgba(24, 74, 126, 1)"></use><use xlink:href="#SvgjsG1100" transform="translate(0, 336) scale(2)" fill="rgba(24, 74, 126, 1)"></use><use xlink:href="#SvgjsG1099" transform="translate(0, 384) scale(2)" fill="rgba(24, 74, 126, 1)"></use><use xlink:href="#SvgjsG1102" transform="translate(0, 432) scale(2)" fill="rgba(24, 74, 126, 1)"></use><use xlink:href="#SvgjsG1103" transform="translate(48, 0) scale(2)" fill="rgba(24, 74, 126, 1)"></use><use xlink:href="#SvgjsG1102" transform="translate(48, 48) scale(2)" fill="rgba(24, 74, 126, 1)"></use><use xlink:href="#SvgjsG1103" transform="translate(48, 96) scale(2)" fill="rgba(24, 74, 126, 1)"></use><use xlink:href="#SvgjsG1102" transform="translate(48, 144) scale(2)" fill="rgba(24, 74, 126, 1)"></use><use xlink:href="#SvgjsG1100" transform="translate(48, 192) scale(2)" fill="rgba(24, 74, 126, 1)"></use><use xlink:href="#SvgjsG1101" transform="translate(48, 240) scale(2)" fill="rgba(24, 74, 126, 1)"></use><use xlink:href="#SvgjsG1099" transform="translate(48, 288) scale(2)" fill="rgba(24, 74, 126, 1)"></use><use xlink:href="#SvgjsG1101" transform="translate(48, 336) scale(2)" fill="rgba(24, 74, 126, 1)"></use><use xlink:href="#SvgjsG1100" transform="translate(48, 384) scale(2)" fill="rgba(24, 74, 126, 1)"></use><use xlink:href="#SvgjsG1099" transform="translate(48, 432) scale(2)" fill="rgba(24, 74, 126, 1)"></use><use xlink:href="#SvgjsG1101" transform="translate(96, 0) scale(2)" fill="rgba(24, 74, 126, 1)"></use><use xlink:href="#SvgjsG1102" transform="translate(96, 48) scale(2)" fill="rgba(24, 74, 126, 1)"></use><use xlink:href="#SvgjsG1103" transform="translate(96, 96) scale(2)" fill="rgba(24, 74, 126, 1)"></use><use xlink:href="#SvgjsG1102" transform="translate(96, 144) scale(2)" fill="rgba(24, 74, 126, 1)"></use><use xlink:href="#SvgjsG1100" transform="translate(96, 192) scale(2)" fill="rgba(24, 74, 126, 1)"></use><use xlink:href="#SvgjsG1101" transform="translate(96, 240) scale(2)" fill="rgba(24, 74, 126, 1)"></use><use xlink:href="#SvgjsG1099" transform="translate(96, 288) scale(2)" fill="rgba(24, 74, 126, 1)"></use><use xlink:href="#SvgjsG1099" transform="translate(96, 336) scale(2)" fill="rgba(24, 74, 126, 1)"></use><use xlink:href="#SvgjsG1103" transform="translate(96, 384) scale(2)" fill="rgba(24, 74, 126, 1)"></use><use xlink:href="#SvgjsG1102" transform="translate(96, 432) scale(2)" fill="rgba(24, 74, 126, 1)"></use><use xlink:href="#SvgjsG1099" transform="translate(144, 0) scale(2)" fill="rgba(24, 74, 126, 1)"></use><use xlink:href="#SvgjsG1099" transform="translate(144, 48) scale(2)" fill="rgba(24, 74, 126, 1)"></use><use xlink:href="#SvgjsG1104" transform="translate(144, 96) scale(2)" fill="rgba(24, 74, 126, 1)"></use><use xlink:href="#SvgjsG1100" transform="translate(144, 144) scale(2)" fill="rgba(24, 74, 126, 1)"></use><use xlink:href="#SvgjsG1099" transform="translate(144, 192) scale(2)" fill="rgba(24, 74, 126, 1)"></use><use xlink:href="#SvgjsG1100" transform="translate(144, 240) scale(2)" fill="rgba(24, 74, 126, 1)"></use><use xlink:href="#SvgjsG1101" transform="translate(144, 288) scale(2)" fill="rgba(24, 74, 126, 1)"></use><use xlink:href="#SvgjsG1103" transform="translate(144, 336) scale(2)" fill="rgba(24, 74, 126, 1)"></use><use xlink:href="#SvgjsG1104" transform="translate(144, 384) scale(2)" fill="rgba(24, 74, 126, 1)"></use><use xlink:href="#SvgjsG1102" transform="translate(144, 432) scale(2)" fill="rgba(24, 74, 126, 1)"></use><use xlink:href="#SvgjsG1103" transform="translate(192, 0) scale(2)" fill="rgba(24, 74, 126, 1)"></use><use xlink:href="#SvgjsG1101" transform="translate(192, 48) scale(2)" fill="rgba(24, 74, 126, 1)"></use><use xlink:href="#SvgjsG1104" transform="translate(192, 96) scale(2)" fill="rgba(24, 74, 126, 1)"></use><use xlink:href="#SvgjsG1101" transform="translate(192, 144) scale(2)" fill="rgba(24, 74, 126, 1)"></use><use xlink:href="#SvgjsG1101" transform="translate(192, 192) scale(2)" fill="rgba(24, 74, 126, 1)"></use><use xlink:href="#SvgjsG1103" transform="translate(192, 240) scale(2)" fill="rgba(24, 74, 126, 1)"></use><use xlink:href="#SvgjsG1099" transform="translate(192, 288) scale(2)" fill="rgba(24, 74, 126, 1)"></use><use xlink:href="#SvgjsG1100" transform="translate(192, 336) scale(2)" fill="rgba(24, 74, 126, 1)"></use><use xlink:href="#SvgjsG1100" transform="translate(192, 384) scale(2)" fill="rgba(24, 74, 126, 1)"></use><use xlink:href="#SvgjsG1103" transform="translate(192, 432) scale(2)" fill="rgba(24, 74, 126, 1)"></use><use xlink:href="#SvgjsG1104" transform="translate(240, 0) scale(2)" fill="rgba(24, 74, 126, 1)"></use><use xlink:href="#SvgjsG1101" transform="translate(240, 48) scale(2)" fill="rgba(24, 74, 126, 1)"></use><use xlink:href="#SvgjsG1104" transform="translate(240, 96) scale(2)" fill="rgba(24, 74, 126, 1)"></use><use xlink:href="#SvgjsG1099" transform="translate(240, 144) scale(2)" fill="rgba(24, 74, 126, 1)"></use><use xlink:href="#SvgjsG1100" transform="translate(240, 192) scale(2)" fill="rgba(24, 74, 126, 1)"></use><use xlink:href="#SvgjsG1100" transform="translate(240, 240) scale(2)" fill="rgba(24, 74, 126, 1)"></use><use xlink:href="#SvgjsG1102" transform="translate(240, 288) scale(2)" fill="rgba(24, 74, 126, 1)"></use><use xlink:href="#SvgjsG1104" transform="translate(240, 336) scale(2)" fill="rgba(24, 74, 126, 1)"></use><use xlink:href="#SvgjsG1099" transform="translate(240, 384) scale(2)" fill="rgba(24, 74, 126, 1)"></use><use xlink:href="#SvgjsG1102" transform="translate(240, 432) scale(2)" fill="rgba(24, 74, 126, 1)"></use><use xlink:href="#SvgjsG1104" transform="translate(288, 0) scale(2)" fill="rgba(24, 74, 126, 1)"></use><use xlink:href="#SvgjsG1103" transform="translate(288, 48) scale(2)" fill="rgba(24, 74, 126, 1)"></use><use xlink:href="#SvgjsG1102" transform="translate(288, 96) scale(2)" fill="rgba(24, 74, 126, 1)"></use><use xlink:href="#SvgjsG1101" transform="translate(288, 144) scale(2)" fill="rgba(24, 74, 126, 1)"></use><use xlink:href="#SvgjsG1103" transform="translate(288, 192) scale(2)" fill="rgba(24, 74, 126, 1)"></use><use xlink:href="#SvgjsG1099" transform="translate(288, 240) scale(2)" fill="rgba(24, 74, 126, 1)"></use><use xlink:href="#SvgjsG1103" transform="translate(288, 288) scale(2)" fill="rgba(24, 74, 126, 1)"></use><use xlink:href="#SvgjsG1104" transform="translate(288, 336) scale(2)" fill="rgba(24, 74, 126, 1)"></use><use xlink:href="#SvgjsG1102" transform="translate(288, 384) scale(2)" fill="rgba(24, 74, 126, 1)"></use><use xlink:href="#SvgjsG1100" transform="translate(288, 432) scale(2)" fill="rgba(24, 74, 126, 1)"></use><use xlink:href="#SvgjsG1102" transform="translate(336, 0) scale(2)" fill="rgba(24, 74, 126, 1)"></use><use xlink:href="#SvgjsG1103" transform="translate(336, 48) scale(2)" fill="rgba(24, 74, 126, 1)"></use><use xlink:href="#SvgjsG1101" transform="translate(336, 96) scale(2)" fill="rgba(24, 74, 126, 1)"></use><use xlink:href="#SvgjsG1104" transform="translate(336, 144) scale(2)" fill="rgba(24, 74, 126, 1)"></use><use xlink:href="#SvgjsG1100" transform="translate(336, 192) scale(2)" fill="rgba(24, 74, 126, 1)"></use><use xlink:href="#SvgjsG1102" transform="translate(336, 240) scale(2)" fill="rgba(24, 74, 126, 1)"></use><use xlink:href="#SvgjsG1100" transform="translate(336, 288) scale(2)" fill="rgba(24, 74, 126, 1)"></use><use xlink:href="#SvgjsG1104" transform="translate(336, 336) scale(2)" fill="rgba(24, 74, 126, 1)"></use><use xlink:href="#SvgjsG1100" transform="translate(336, 384) scale(2)" fill="rgba(24, 74, 126, 1)"></use><use xlink:href="#SvgjsG1099" transform="translate(336, 432) scale(2)" fill="rgba(24, 74, 126, 1)"></use><use xlink:href="#SvgjsG1099" transform="translate(384, 0) scale(2)" fill="rgba(24, 74, 126, 1)"></use><use xlink:href="#SvgjsG1104" transform="translate(384, 48) scale(2)" fill="rgba(24, 74, 126, 1)"></use><use xlink:href="#SvgjsG1100" transform="translate(384, 96) scale(2)" fill="rgba(24, 74, 126, 1)"></use><use xlink:href="#SvgjsG1104" transform="translate(384, 144) scale(2)" fill="rgba(24, 74, 126, 1)"></use><use xlink:href="#SvgjsG1103" transform="translate(384, 192) scale(2)" fill="rgba(24, 74, 126, 1)"></use><use xlink:href="#SvgjsG1104" transform="translate(384, 240) scale(2)" fill="rgba(24, 74, 126, 1)"></use><use xlink:href="#SvgjsG1100" transform="translate(384, 288) scale(2)" fill="rgba(24, 74, 126, 1)"></use><use xlink:href="#SvgjsG1103" transform="translate(384, 336) scale(2)" fill="rgba(24, 74, 126, 1)"></use><use xlink:href="#SvgjsG1100" transform="translate(384, 384) scale(2)" fill="rgba(24, 74, 126, 1)"></use><use xlink:href="#SvgjsG1104" transform="translate(384, 432) scale(2)" fill="rgba(24, 74, 126, 1)"></use><use xlink:href="#SvgjsG1102" transform="translate(432, 0) scale(2)" fill="rgba(24, 74, 126, 1)"></use><use xlink:href="#SvgjsG1102" transform="translate(432, 48) scale(2)" fill="rgba(24, 74, 126, 1)"></use><use xlink:href="#SvgjsG1103" transform="translate(432, 96) scale(2)" fill="rgba(24, 74, 126, 1)"></use><use xlink:href="#SvgjsG1104" transform="translate(432, 144) scale(2)" fill="rgba(24, 74, 126, 1)"></use><use xlink:href="#SvgjsG1104" transform="translate(432, 192) scale(2)" fill="rgba(24, 74, 126, 1)"></use><use xlink:href="#SvgjsG1103" transform="translate(432, 240) scale(2)" fill="rgba(24, 74, 126, 1)"></use><use xlink:href="#SvgjsG1102" transform="translate(432, 288) scale(2)" fill="rgba(24, 74, 126, 1)"></use><use xlink:href="#SvgjsG1104" transform="translate(432, 336) scale(2)" fill="rgba(24, 74, 126, 1)"></use><use xlink:href="#SvgjsG1099" transform="translate(432, 384) scale(2)" fill="rgba(24, 74, 126, 1)"></use><use xlink:href="#SvgjsG1101" transform="translate(432, 432) scale(2)" fill="rgba(24, 74, 126, 1)"></use></g></defs></svg>