<svg width="1500" height="973" viewBox="0 0 1500 973" fill="none" xmlns="http://www.w3.org/2000/svg">
<path d="M1512 0H0V973H1512V0Z" fill="#FAFAFA"/>
<path d="M0 284.693C100.8 245.052 302.4 106.85 504 86.4888C705.6 66.1279 806.4 185.05 1008 182.888C1209.6 180.726 1411.2 97.1198 1512 75.6777V973H0V284.693Z" fill="#184A7E"/>
<path d="M0 558.574C100.8 516.231 302.4 356.767 504 346.856C705.6 336.946 806.4 482.356 1008 509.023C1209.6 535.691 1411.2 485.959 1512 480.193V973H0V558.574Z" fill="#AAFE2C"/>
<path d="M0 864.889C60.48 843.807 181.44 749.75 302.4 759.48C423.36 769.21 483.84 919.485 604.8 913.539C725.76 907.593 786.24 749.03 907.2 729.75C1028.16 710.47 1088.64 824.167 1209.6 817.14C1330.56 810.112 1451.52 719.119 1512 694.614V973H0V864.889Z" fill="#E6FFBD"/>
</svg>
